<?xml version="1.0" encoding="UTF-8"?>
<svg version="1.1" xmlns="http://www.w3.org/2000/svg" width="1218" height="1046">
<path d="M0 0 C401.94 0 803.88 0 1218 0 C1218 345.18 1218 690.36 1218 1046 C816.06 1046 414.12 1046 0 1046 C0 700.82 0 355.64 0 0 Z " fill="#E0E0E0" transform="translate(0,0)"/>
<path d="M0 0 C0.71542969 0.30550781 1.43085937 0.61101562 2.16796875 0.92578125 C4.17441165 1.86487927 6.07777807 2.89802119 8 4 C8.97324219 4.55300781 9.94648437 5.10601562 10.94921875 5.67578125 C35.69249351 20.28749025 51.37941059 42.02622508 59 69.62109375 C64.63280386 93.0459752 62.92686723 117.60501752 58 141 C57.76772705 142.10819092 57.76772705 142.10819092 57.53076172 143.23876953 C54.33232198 157.85666632 48.39057911 171.73214773 41.546875 184.98046875 C40.29559609 187.42299046 39.14438775 189.85534037 38.0625 192.375 C35.02693676 199.39557578 31.44942685 206.17649786 28 213 C27.34 213 26.68 213 26 213 C25.67515625 214.19302734 25.67515625 214.19302734 25.34375 215.41015625 C23.58507455 220.10847815 21.11089822 224.16726709 18.5 228.4375 C17.69477905 229.76539551 17.69477905 229.76539551 16.87329102 231.12011719 C12.51627268 238.25786827 7.98423768 245.25837862 3.26074219 252.15820312 C1.94125794 254.08581528 0.63062022 256.01926551 -0.6796875 257.953125 C-16.09546519 280.62451499 -32.82849836 302.31924402 -50.7590332 323.05786133 C-53.75835403 326.53094247 -56.68354806 330.05059964 -59.5625 333.625 C-63.18271378 338.08971211 -67.0109616 342.32635152 -70.92529297 346.53100586 C-73.8162708 349.65428545 -76.54116427 352.8556373 -79.1875 356.1875 C-83.87265105 362.01640402 -88.99025412 367.40482823 -94.15307617 372.8112793 C-98.00180038 376.84605603 -101.7439673 380.94466705 -105.39648438 385.15795898 C-107.61660378 387.70832453 -109.8980848 390.19931387 -112.1875 392.6875 C-112.64672852 393.18733398 -113.10595703 393.68716797 -113.57910156 394.20214844 C-116.08993828 396.93308547 -118.60774947 399.65749625 -121.12890625 402.37890625 C-125.8542704 407.48153322 -130.5514239 412.59115836 -135.1015625 417.8515625 C-137.64855834 420.7339652 -140.26118779 423.55323406 -142.875 426.375 C-154.65297283 439.09993638 -166.13354926 452.05332075 -176.96484375 465.59765625 C-179 468 -179 468 -181.453125 470.4453125 C-184.10499032 473.10531237 -186.45398349 475.89075566 -188.8125 478.8125 C-189.60269531 479.78832031 -190.39289063 480.76414062 -191.20703125 481.76953125 C-191.79871094 482.50558594 -192.39039063 483.24164062 -193 484 C-197.09350899 482.48008664 -199.08773129 479.60044233 -201.5625 476.1875 C-208.85141708 466.43114445 -216.77355467 457.2658135 -224.9609375 448.25390625 C-226.79086247 446.2311731 -228.58881728 444.18630565 -230.375 442.125 C-233.35916686 438.69667808 -236.42188484 435.34379199 -239.5 432 C-243.14162671 428.04405892 -246.73499373 424.05438522 -250.2578125 419.9921875 C-252.31500399 417.63979365 -254.40596915 415.31965034 -256.5 413 C-259.76390848 409.38323655 -262.98790949 405.73610392 -266.1875 402.0625 C-268.27211164 399.69035571 -270.38428644 397.34443935 -272.5 395 C-275.76390848 391.38323655 -278.98790949 387.73610392 -282.1875 384.0625 C-284.27211164 381.69035571 -286.38428644 379.34443935 -288.5 377 C-291.76390848 373.38323655 -294.98790949 369.73610392 -298.1875 366.0625 C-300.27211164 363.69035571 -302.38428644 361.34443935 -304.5 359 C-314.95523482 347.40259667 -325.14587796 335.56719518 -334.98828125 323.4453125 C-336.78729047 321.25855566 -338.62401526 319.1206784 -340.5 317 C-371.97671119 281.33601989 -401.4215172 240.95048812 -422.04833984 197.97705078 C-423.01600868 195.96674236 -424.00150037 193.96582945 -424.98828125 191.96484375 C-444.82788276 151.29366066 -457.66176952 103.66020047 -442.46972656 59.41503906 C-437.62802872 46.09890281 -430.30567733 34.77718105 -420 25 C-419.54882812 24.49339844 -419.09765625 23.98679687 -418.6328125 23.46484375 C-400.61118354 3.78450765 -370.65955173 -4.095655 -345 -6 C-318.16493562 -7.1504386 -291.11401004 -3.92193176 -266.79394531 8.11328125 C-264.98565987 9.0070881 -263.16340768 9.86495593 -261.3359375 10.71875 C-244.86079627 18.61533185 -231.20877296 29.5546373 -218 42 C-217.2265625 42.70769531 -216.453125 43.41539062 -215.65625 44.14453125 C-206.27518793 53.03274767 -198.31306179 63.97416965 -192.0859375 75.27734375 C-191.10482579 77.16348277 -191.10482579 77.16348277 -189 78 C-188.690625 76.8553125 -188.690625 76.8553125 -188.375 75.6875 C-176.2192504 43.08798971 -144.57253291 17.661086 -114.04736328 3.06640625 C-79.53314224 -12.69699489 -35.09017465 -14.9970456 0 0 Z " fill="#E0E0E0" transform="translate(818,404)"/>
<path d="M0 0 C0.33 0 0.66 0 1 0 C-0.70014361 45.86567213 -3.55106534 90.82263861 -12 136 C-12.32750244 137.75304443 -12.32750244 137.75304443 -12.66162109 139.54150391 C-13.30456359 142.94668275 -13.96078613 146.34891096 -14.625 149.75 C-14.81892334 150.75538818 -15.01284668 151.76077637 -15.21264648 152.79663086 C-16.25819728 158.01198526 -17.57725472 162.95707783 -19.33496094 167.97558594 C-20.28153302 170.8570014 -20.79736699 173.76433111 -21.3125 176.75 C-23.04368753 185.77561834 -25.59160126 194.51687214 -28.20605469 203.32128906 C-28.97238732 205.90683693 -29.72576648 208.49584198 -30.4765625 211.0859375 C-33.68269122 222.05997836 -37.29418951 232.85035709 -41.15185547 243.61132812 C-41.97440389 245.92791239 -42.77441798 248.25093662 -43.56640625 250.578125 C-46.14951261 258.13247687 -48.9810291 265.36194244 -52.44140625 272.5703125 C-54.26849011 276.59081283 -55.8201731 280.68112774 -57.375 284.8125 C-60.09227754 291.95765736 -63.22720985 298.72955927 -66.7265625 305.51953125 C-68.94332157 309.83580747 -71.00908868 314.21752776 -73.07739258 318.60644531 C-83.52671894 340.72473007 -95.07587907 362.22518632 -108 383 C-108.48001465 383.77569336 -108.9600293 384.55138672 -109.45458984 385.35058594 C-121.258609 404.38983471 -133.68948905 422.98045348 -147 441 C-147.42120117 441.57041016 -147.84240234 442.14082031 -148.27636719 442.72851562 C-150.82599703 446.17146178 -153.40628927 449.59018499 -156 453 C-157.14662109 454.51400391 -157.14662109 454.51400391 -158.31640625 456.05859375 C-168.02233683 468.81681515 -178.20361426 481.19638807 -188.61865234 493.38037109 C-190.04924862 495.05774396 -191.47224562 496.74135817 -192.89453125 498.42578125 C-198.56182984 505.11535753 -204.3601408 511.64881026 -210.37255859 518.03100586 C-213.02582238 520.85068385 -215.6156574 523.70311218 -218.13574219 526.64282227 C-222.21255203 531.31073597 -226.54704258 535.69106853 -230.93359375 540.06640625 C-232.18874535 541.32299294 -232.18874535 541.32299294 -233.46925354 542.60496521 C-235.22868104 544.36506935 -236.98935653 546.12392677 -238.7512207 547.8815918 C-241.42969411 550.55470972 -244.10278873 553.23312251 -246.77539062 555.91210938 C-248.49447115 557.63052903 -250.21386189 559.34863842 -251.93359375 561.06640625 C-252.72342148 561.85825821 -253.51324921 562.65011017 -254.32701111 563.46595764 C-258.50084163 567.62242229 -262.74844608 571.6279764 -267.22084045 575.46238708 C-270.22427345 578.05806063 -273.10462399 580.78517558 -276 583.5 C-280.92522755 588.09207332 -285.88473817 592.61942568 -291 597 C-292.06917493 597.92298655 -293.13816796 598.84618382 -294.20703125 599.76953125 C-300.48232906 605.18019408 -306.80463175 610.51676422 -313.2421875 615.734375 C-315.7171072 617.76759515 -318.15186902 619.84121033 -320.57910156 621.9309082 C-326.48792905 627.0065085 -332.5766107 631.74687244 -338.84204102 636.3737793 C-343.71868473 639.99152108 -348.44086455 643.76217533 -353.125 647.625 C-359.0083378 652.46170053 -365.02666498 656.98570621 -371.26171875 661.35546875 C-375.60832932 664.40759373 -379.86086375 667.58425452 -384.125 670.75 C-410.02135207 689.89585981 -437.01803888 707.43799283 -464 725 C-464.82113281 725.53496094 -465.64226563 726.06992187 -466.48828125 726.62109375 C-472.886243 730.7869514 -479.29039735 734.93930496 -485.765625 738.984375 C-487.40641466 740.01015334 -489.04703973 741.03619498 -490.6875 742.0625 C-491.4801123 742.5582251 -492.27272461 743.0539502 -493.08935547 743.56469727 C-498.82491738 747.18255896 -504.37616364 751.00234028 -509.81323242 755.05493164 C-513.80074891 758 -513.80074891 758 -516 758 C-516.17015625 757.35933594 -516.3403125 756.71867188 -516.515625 756.05859375 C-517.71557116 751.77580719 -518.87501894 747.91012607 -521.25 744.125 C-523 741 -523 741 -522.77514648 739.03417969 C-521.91206747 736.76924288 -520.85832073 735.22116308 -519.34765625 733.328125 C-518.81849609 732.66425781 -518.28933594 732.00039063 -517.74414062 731.31640625 C-517.18919922 730.63449219 -516.63425781 729.95257812 -516.0625 729.25 C-515.23588867 728.20392578 -515.23588867 728.20392578 -514.39257812 727.13671875 C-511.31809323 723.31882863 -511.31809323 723.31882863 -510 722 C-509.34 722 -508.68 722 -508 722 C-507.75378906 721.43410156 -507.50757813 720.86820313 -507.25390625 720.28515625 C-505.78463776 717.60751742 -504.02247565 715.66956388 -501.9375 713.4375 C-498.61567006 709.82241059 -495.44902301 706.14052865 -492.375 702.3125 C-489.31342275 698.52805034 -486.15436499 695.03511986 -482.66015625 691.65234375 C-480.3306104 689.33376047 -478.21980844 686.84729473 -476.07421875 684.359375 C-473.47370803 681.40135527 -470.80265774 678.5131049 -468.125 675.625 C-462.31874323 669.35860098 -456.59436635 663.0227452 -450.90234375 656.65234375 C-446.44483544 651.67708493 -441.92961869 646.76114624 -437.375 641.875 C-433.4432163 637.65637201 -429.56102871 633.41274125 -425.796875 629.04296875 C-423.91834734 626.90716448 -421.99189106 624.81938296 -420.05810547 622.73364258 C-415.17127672 617.46136209 -410.55563026 612.05318583 -406.046875 606.44921875 C-404.28073247 604.33591462 -402.47865302 602.41058009 -400.5 600.5 C-396.83299806 596.95047638 -393.70167918 593.04182744 -390.50390625 589.0703125 C-387.80910706 585.76592535 -385.03911632 582.53706138 -382.25 579.3125 C-361.95699752 555.75656141 -342.97580937 531.05435011 -326 505 C-325.55946289 504.32614258 -325.11892578 503.65228516 -324.66503906 502.95800781 C-321.41844532 497.98788525 -318.19885927 493.0009699 -315 488 C-314.52933105 487.26442871 -314.05866211 486.52885742 -313.57373047 485.77099609 C-312.18929005 483.60088218 -310.81202037 481.4264079 -309.4375 479.25 C-309.01984375 478.59459229 -308.6021875 477.93918457 -308.171875 477.26391602 C-306.08344215 473.93656027 -304.30937769 470.70872383 -303 467 C-302.34 467 -301.68 467 -301 467 C-300.88914062 466.27554687 -300.77828125 465.55109375 -300.6640625 464.8046875 C-299.95952548 461.82905466 -298.91061415 459.76100076 -297.375 457.125 C-294.52171426 452.05325046 -292.02149111 446.89497314 -289.60693359 441.60644531 C-287.85722519 437.78767547 -285.98636515 434.07830311 -284 430.375 C-276.75383212 415.94078858 -272.65899917 399.86713946 -270 384 C-269.82267334 382.95158936 -269.64534668 381.90317871 -269.46264648 380.82299805 C-268.14166862 372.40742255 -267.64859509 364.20080972 -267.6875 355.6875 C-267.69168945 354.42292969 -267.69587891 353.15835937 -267.70019531 351.85546875 C-267.81573374 342.25840465 -268.64796571 333.29613553 -271 324 C-271.26683594 322.89527344 -271.53367187 321.79054688 -271.80859375 320.65234375 C-275.1845597 308.30381054 -281.35576696 296.25681902 -289 286 C-289.58136719 285.19304687 -290.16273438 284.38609375 -290.76171875 283.5546875 C-300.94393779 270.04724074 -316.23848227 259.37166799 -332.25 253.9375 C-332.99797852 253.68000977 -333.74595703 253.42251953 -334.51660156 253.15722656 C-349.55904034 248.03929461 -363.87724421 245.63269399 -379.8125 245.75 C-381.13040527 245.75604248 -382.44831055 245.76208496 -383.80615234 245.76831055 C-397.29823565 245.90571295 -410.0107961 247.15192871 -423 251 C-423.64630371 251.1851416 -424.29260742 251.3702832 -424.95849609 251.56103516 C-441.79845896 256.45406845 -457.24569657 264.05085056 -471 275 C-471.7425 275.54140625 -472.485 276.0828125 -473.25 276.640625 C-492.64446868 291.18647651 -508.06936811 309.93581436 -518 332 C-518.33 332 -518.66 332 -519 332 C-519.30306639 325.7765669 -518.43089509 321.02285214 -516.3125 315.1875 C-516.00852295 314.34074707 -515.7045459 313.49399414 -515.39135742 312.62158203 C-508.28162886 293.54503435 -499.09968907 275.38429345 -487 259 C-486.33291016 258.09290283 -486.33291016 258.09290283 -485.65234375 257.16748047 C-482.84566945 253.38161196 -479.94485845 249.67987205 -477 246 C-476.14956467 244.91940847 -475.29930524 243.83867848 -474.44921875 242.7578125 C-469.83463564 236.97302411 -469.83463564 236.97302411 -468 235 C-467.34 235 -466.68 235 -466 235 C-465.75121094 234.42636719 -465.50242187 233.85273438 -465.24609375 233.26171875 C-460.65841083 224.93485852 -451.29762742 218.81513372 -444 213 C-443.23300781 212.35417969 -442.46601562 211.70835937 -441.67578125 211.04296875 C-425.03995019 197.17506884 -405.15999218 185.83210964 -385 178 C-383.94296875 177.58363281 -382.8859375 177.16726563 -381.796875 176.73828125 C-365.73303598 170.70482513 -348.76433259 166.2073493 -331.75 163.9375 C-330.04070312 163.70353516 -330.04070312 163.70353516 -328.296875 163.46484375 C-314.99843798 161.95085789 -301.84516072 161.92256901 -288.47903252 162.04709625 C-283.59817337 162.08981225 -278.71727673 162.1127825 -273.83629704 162.13712692 C-264.78986335 162.18242894 -255.74364587 162.23501674 -246.69750977 162.32226562 C-207.03909453 163.01592186 -207.03909453 163.01592186 -168 157 C-166.39031001 156.63872128 -164.7796904 156.28154774 -163.16796875 155.92944336 C-131.80087577 148.87621722 -100.63799212 134.79724377 -76 114 C-75.10925781 113.29230469 -74.21851563 112.58460938 -73.30078125 111.85546875 C-63.88772779 104.35915979 -55.70286501 96.17417551 -48.20703125 86.76171875 C-46.77510746 84.96991323 -45.31538272 83.19984587 -43.82421875 81.45703125 C-37.57652093 74.12181232 -32.40496804 66.25957842 -27.31689453 58.10058594 C-26.11397705 56.18180544 -24.88715552 54.28114455 -23.65234375 52.3828125 C-17.21827454 42.30061762 -12.62031456 31.49295581 -8.03369141 20.47119141 C-7.14781059 18.35336296 -6.23626906 16.24988372 -5.3125 14.1484375 C-4.13526483 11.32447457 -3.19894945 8.56767662 -2.375 5.625 C-1.10504202 1.10504202 -1.10504202 1.10504202 0 0 Z " fill="#BF3074" transform="translate(1147,150)"/>
<path d="M0 0 C2.91919978 2.77805166 5.26218909 5.63359772 7.5625 8.9375 C14.47174259 18.54427377 22.2804392 27.32716255 30.3125 36 C30.88693848 36.62293945 31.46137695 37.24587891 32.05322266 37.88769531 C34.71528698 40.73103611 37.37656455 43.37438635 40.41796875 45.8125 C41.69607422 46.8953125 41.69607422 46.8953125 43 48 C43 48.66 43 49.32 43 50 C43.56074219 50.23847656 44.12148437 50.47695312 44.69921875 50.72265625 C47.50900902 52.28259075 49.49333092 54.21095518 51.8125 56.4375 C65.48304121 69.05366437 81.50823378 79.46977609 98 88 C98.56879883 88.30260742 99.13759766 88.60521484 99.72363281 88.91699219 C139.93425845 110.28752564 184.77914397 114.91952993 229.6640625 115.30859375 C230.87756063 115.31912844 230.87756063 115.31912844 232.11557388 115.32987595 C239.61943899 115.39086036 247.12338721 115.42843134 254.62744141 115.45629883 C272.45822044 115.52905217 290.18773523 115.8367866 307.9609375 117.3671875 C308.66346272 117.42650892 309.36598793 117.48583035 310.08980179 117.54694939 C357.448918 121.64197377 406.33085849 136.8033236 445 165 C445.67192383 165.48549316 446.34384766 165.97098633 447.03613281 166.47119141 C471.02526483 183.92634001 492.23574345 205.10598301 507 231 C507.36480469 231.63389648 507.72960937 232.26779297 508.10546875 232.92089844 C513.98675723 243.24326226 518.50912936 253.77309668 522.32421875 265.02050781 C522.91521115 266.7516373 523.54615243 268.46902387 524.18359375 270.18359375 C525.06441998 273.22223351 525.20193758 275.7205594 525.125 278.875 C525.10695313 279.84179688 525.08890625 280.80859375 525.0703125 281.8046875 C525.03550781 282.89136719 525.03550781 282.89136719 525 284 C522.07288658 281.2562263 519.98312638 278.56751191 517.9375 275.125 C501.54090013 248.96686503 477.78932913 228.85523236 449.88623047 215.88183594 C448.15401417 215.07200352 446.43742769 214.22895717 444.72265625 213.3828125 C410.29283239 197.27382825 366.44142492 196.3761686 330.87109375 209.12109375 C318.3211797 214.11160716 306.29149363 220.41737595 296.84765625 230.23828125 C295 232 295 232 293 232 C292.74476563 232.57105469 292.48953125 233.14210938 292.2265625 233.73046875 C290.86544237 236.24897448 289.24981974 238.15010831 287.375 240.3125 C269.56540317 262.47770476 264.47525449 292.38277061 267.32080078 320.12792969 C271.47362624 352.95694843 282.9383821 382.8309028 298.01757812 412.09277344 C298.6607716 413.34143831 299.30024506 414.5920281 299.93554688 415.84472656 C314.27400336 444.08208854 333.52743452 470.11838855 353 495 C353.90379907 496.16264131 354.8074403 497.32540533 355.7109375 498.48828125 C360.89082624 505.13683578 366.17395395 511.67701394 371.59765625 518.12890625 C373.94841787 520.93835306 376.25811392 523.77746572 378.5625 526.625 C382.16231621 531.04094326 385.92383549 535.27139125 389.76171875 539.48046875 C392.02847158 542.03204917 394.17540087 544.65171532 396.3125 547.3125 C400.72138108 552.76376101 405.4352398 557.87713498 410.21484375 563 C412.97346339 565.95876022 415.64611326 568.98395085 418.29296875 572.04296875 C420.33633431 574.3855915 422.41680859 576.69273422 424.5 579 C427.17048344 581.95869751 429.82298058 584.92926472 432.4375 587.9375 C435.24822525 591.16559512 438.115799 594.33738443 441 597.5 C445.96346879 602.94789142 450.8469339 608.45022608 455.60546875 614.078125 C461.60708558 621.15916203 467.76560851 628.04438639 474.12792969 634.80371094 C477.6200762 638.51448261 481.04823848 642.26082745 484.37109375 646.125 C486.33665089 648.38751181 488.35673309 650.59690683 490.375 652.8125 C494.28500084 657.14591886 498.0043941 661.60425135 501.67578125 666.140625 C503.70799245 668.64075709 505.76386906 671.11866743 507.83520508 673.58642578 C509.8999689 676.04944709 511.94849882 678.52593047 514 681 C514.65226563 681.77085937 515.30453125 682.54171875 515.9765625 683.3359375 C522.71869435 691.56312042 527.24720264 700.48321586 529 711 C524.95290136 710.27983959 521.5236931 708.35167932 517.9375 706.4375 C516.83643921 705.85137939 516.83643921 705.85137939 515.71313477 705.25341797 C505.84684075 699.92543859 496.25285696 694.12230516 486.63493347 688.36276245 C482.08859432 685.64274463 477.52579433 682.95167963 472.95703125 680.26953125 C458.75266573 671.91973283 444.73965579 663.40501924 431.00390625 654.296875 C426.53609503 651.33477142 422.00468974 648.49302761 417.4375 645.6875 C411.28310322 641.88908324 405.39615665 637.80451108 399.546875 633.5546875 C395.8302846 630.85943437 392.04362107 628.27264484 388.25 625.6875 C358.55819626 605.36392893 329.94505392 583.23206752 302.57519531 559.87402344 C299.3256834 557.10398074 296.02541833 554.41238724 292.6875 551.75 C286.48531025 546.70507014 280.72894532 541.20700218 274.9296875 535.7109375 C271.55486614 532.51262012 268.13314374 529.37158237 264.6875 526.25 C259.78970285 521.78475287 255.119188 517.14413089 250.46484375 512.4296875 C248.45311991 510.44665703 246.42720538 508.60663361 244.25 506.8125 C241.88218401 504.85550027 239.89949294 502.79786909 237.921875 500.44921875 C233.53391193 495.37599788 228.77610752 490.70482234 224 486 C218.67230247 480.75182034 213.44223483 475.50229565 208.57324219 469.82275391 C206.16904085 467.0372531 203.64203908 464.37061875 201.125 461.6875 C196.59098306 456.8189425 192.31507219 451.80667836 188.1484375 446.6171875 C185.98488228 443.98158387 183.7361044 441.45576625 181.4375 438.9375 C177.89122111 435.03720359 174.55430259 431.03076137 171.29296875 426.890625 C168.97796927 423.97222702 166.62500662 421.08818437 164.26489258 418.20629883 C158.77176116 411.49054587 153.40332062 404.71343126 148.26660156 397.71875 C146.81883695 395.75416579 145.35872865 393.79904015 143.8984375 391.84375 C130.61956657 374.01195969 117.8443033 355.81891067 106 337 C105.49404297 336.19916992 104.98808594 335.39833984 104.46679688 334.57324219 C86.71567331 306.41517194 70.95718536 277.23770993 56.95019531 247.04443359 C56.14055875 245.30242523 55.31774254 243.56655233 54.4921875 241.83203125 C52.17062282 236.88958066 50.15578869 231.86289893 48.25390625 226.74609375 C47.99366165 226.04843903 47.73341705 225.3507843 47.46528625 224.63198853 C46.64183443 222.42195028 45.82077839 220.21103234 45 218 C44.74059631 217.30317108 44.48119263 216.60634216 44.21392822 215.88839722 C36.75690447 195.84805016 29.76475395 175.78863181 23.91845703 155.21289062 C23.11420551 152.3995068 22.28091826 149.59749392 21.43359375 146.796875 C12.04247072 115.05059039 6.65350099 81.85671765 3 49 C2.87785126 47.90534424 2.87785126 47.90534424 2.75323486 46.78857422 C1.03209923 31.22844449 -0.63747499 15.6771627 0 0 Z " fill="#4BA4DE" transform="translate(103,198)"/>
<path d="M0 0 C6.45350774 5.46370594 11.4028274 11.82842906 16.171875 18.78125 C16.60371094 19.40773437 17.03554688 20.03421875 17.48046875 20.6796875 C20.74944618 25.89478768 22.44717853 31.91873131 24.171875 37.78125 C24.5328125 38.9671875 24.89375 40.153125 25.265625 41.375 C30.18751266 61.59795598 25.54778461 83.21573373 15.171875 100.78125 C10.34956976 108.10143997 5.17352319 114.4813011 -1.828125 119.78125 C-2.65699219 120.4103125 -3.48585938 121.039375 -4.33984375 121.6875 C-8.67036794 124.8463876 -12.52928192 127.52626085 -17.828125 128.78125 C-17.828125 129.44125 -17.828125 130.10125 -17.828125 130.78125 C-39.97727665 138.70895182 -61.6334421 141.25812252 -83.765625 131.33984375 C-100.18871362 122.98166472 -112.02858662 112.02969993 -120.828125 95.78125 C-121.32054687 94.88148438 -121.81296875 93.98171875 -122.3203125 93.0546875 C-132.84129458 72.94653832 -131.38130926 50.74254924 -125.140625 29.46875 C-118.52360911 11.14663404 -102.61450174 -3.16218248 -85.828125 -12.21875 C-55.5566769 -26.11460794 -25.35909066 -19.8949772 0 0 Z " fill="#4BA5DF" transform="translate(382.828125,142.21875)"/>
<path d="M0 0 C15.5097412 11.71503923 24.37464163 25.67909512 29.4375 44.25 C29.68242188 45.09691406 29.92734375 45.94382813 30.1796875 46.81640625 C34.75435417 65.33440625 30.60946101 85.83026561 21.4375 102.25 C18.7437556 106.48781858 15.63833894 110.38651048 12.4375 114.25 C11.81101562 115.08402344 11.18453125 115.91804687 10.5390625 116.77734375 C-0.39252545 129.63923069 -16.45829102 136.71770888 -32.5625 140.25 C-33.74585938 140.53810547 -33.74585938 140.53810547 -34.953125 140.83203125 C-55.42889563 144.11183283 -75.12150729 138.70916553 -92.24609375 127.4921875 C-94.46384821 125.83944154 -96.51780169 124.11170974 -98.5625 122.25 C-99.30757812 121.58484375 -100.05265625 120.9196875 -100.8203125 120.234375 C-108.87973443 112.63939434 -115.14124868 103.40103441 -119.5625 93.25 C-119.92214844 92.425 -120.28179688 91.6 -120.65234375 90.75 C-127.46837952 74.4497294 -127.34584262 51.98347504 -121.05078125 35.4921875 C-117.34107238 27.4106695 -113.20707818 20.13363193 -107.5625 13.25 C-107.01335938 12.54359375 -106.46421875 11.8371875 -105.8984375 11.109375 C-79.54304445 -20.9656991 -32.60598044 -22.63292218 0 0 Z " fill="#BF3074" transform="translate(974.5625,136.75)"/>
<path d="M0 0 C0.66 0.33 1.32 0.66 2 1 C-6.58 9.58 -15.16 18.16 -24 27 C-24.66 26.67 -25.32 26.34 -26 26 C-25.04882866 24.8274869 -24.08882991 23.66212985 -23.125 22.5 C-22.59132813 21.8503125 -22.05765625 21.200625 -21.5078125 20.53125 C-21.01023437 20.0259375 -20.51265625 19.520625 -20 19 C-19.34 19 -18.68 19 -18 19 C-17.63455078 18.14535156 -17.63455078 18.14535156 -17.26171875 17.2734375 C-13.43063435 10.37036901 -6.01417907 4.99048901 0 0 Z " fill="#C34E88" transform="translate(699,366)"/>
<path d="M0 0 C0.66 0.33 1.32 0.66 2 1 C-3.28 6.28 -8.56 11.56 -14 17 C-14.66 16.67 -15.32 16.34 -16 16 C-10.96679794 10.22494276 -5.96260189 4.82082706 0 0 Z " fill="#63B2DF" transform="translate(284,138)"/>
<path d="M0 0 C0.33 0 0.66 0 1 0 C0.67 7.92 0.34 15.84 0 24 C-0.33 24 -0.66 24 -1 24 C-1.06058594 23.10796875 -1.12117188 22.2159375 -1.18359375 21.296875 C-1.26738281 20.12640625 -1.35117188 18.9559375 -1.4375 17.75 C-1.51871094 16.58984375 -1.59992188 15.4296875 -1.68359375 14.234375 C-1.88811794 11.14342477 -1.88811794 11.14342477 -2.625 8.8125 C-3.31231011 5.49050112 -1.42370557 2.96130758 0 0 Z " fill="#C65C92" transform="translate(1147,150)"/>
<path d="M0 0 C0.66 0.33 1.32 0.66 2 1 C-2.62 5.62 -7.24 10.24 -12 15 C-12.66 14.67 -13.32 14.34 -14 14 C-12.60919892 12.41224451 -11.21211596 10.82999061 -9.8125 9.25 C-8.64654297 7.92742187 -8.64654297 7.92742187 -7.45703125 6.578125 C-5.11544754 4.12113732 -2.69841735 2.05137234 0 0 Z " fill="#C44E89" transform="translate(880,137)"/>
<path d="M0 0 C4 4 4 4 5 7 C3.68 6.67 2.36 6.34 1 6 C1 9.63 1 13.26 1 17 C0.67 17 0.34 17 0 17 C0 11.39 0 5.78 0 0 Z " fill="#6599CE" transform="translate(103,198)"/>
<path d="M0 0 C1.32 0 2.64 0 4 0 C2.25 5.75 2.25 5.75 0 8 C0 5.36 0 2.72 0 0 Z " fill="#B64283" transform="translate(628,474)"/>
</svg>
